<svg width="167" height="85" viewBox="0 0 167 85" fill="none" xmlns="http://www.w3.org/2000/svg">
<path d="M3.49921 13.178C3.49921 7.65516 7.97636 3.17801 13.4992 3.17801H153.499C159.022 3.17801 163.499 7.65516 163.499 13.178V70.178C163.499 75.7009 159.022 80.178 153.499 80.178H13.4992C7.97636 80.178 3.49921 75.7009 3.49921 70.178V13.178Z" fill="#8D8D8D"/>
<path d="M127.074 37.3008L3.6897 37.142V41.4701H127.074H127.698H162.953V37.3008H127.074Z" fill="#606060"/>
<path d="M127.698 41.4701H127.074M127.074 41.4701H3.6897V37.142L127.074 37.3008H162.953V41.4701H127.074Z" stroke="#606060"/>
<path d="M2 36.3334V42.1053" stroke="white" stroke-width="3"/>
<rect x="24.4714" y="21.5316" width="22.6628" height="10.8112" rx="2" fill="#373737"/>
<rect x="28.0975" y="21.5316" width="15.4107" height="10.8112" fill="#D9D9D9"/>
<rect x="72.0846" y="21.5316" width="22.6628" height="10.8112" rx="2" fill="#373737"/>
<rect x="75.7107" y="21.5316" width="15.4107" height="10.8112" fill="#D9D9D9"/>
<rect x="119.697" y="21.5316" width="22.6628" height="10.8112" rx="2" fill="#373737"/>
<rect x="123.323" y="21.5316" width="15.4107" height="10.8112" fill="#D9D9D9"/>
<path d="M3.46765 10.1575C4.60991 8.01343 8.0645 3.71498 10.6375 3.68435C13.324 3.49292 17.5829 3.18662 13.1262 3.49292C15.0359 3.34034 18.4641 3.14068 20.0729 3.2752L36.5585 3.37806H100.032C106.46 3.9239 120.587 6.04323 125.67 10.1539C83.9248 10.1284 3.46765 10.0972 3.46765 10.1575Z" fill="#606060"/>
<path d="M128.037 10.0622C127.426 10.0618 126.299 10.1542 125.67 10.1539M20.0729 3.2752C18.4641 3.14068 15.0359 3.34034 13.1262 3.49292C17.5829 3.18662 13.324 3.49292 10.6375 3.68435C8.0645 3.71498 4.60991 8.01343 3.46765 10.1575C3.46765 10.0972 83.9248 10.1284 125.67 10.1539M20.0729 3.2752C20.5499 3.31508 20.8669 3.38434 20.9369 3.49292C21.2432 3.96769 20.4885 3.54559 20.0729 3.2752ZM20.0729 3.2752L36.5585 3.37806H100.032C106.46 3.9239 120.587 6.04323 125.67 10.1539" stroke="#606060"/>
<path d="M163.953 10.1575C162.81 8.01343 159.356 3.71498 156.783 3.68435C154.096 3.49292 149.837 3.18662 154.294 3.49292C152.385 3.34034 148.956 3.14068 147.348 3.2752L130.862 3.37806H67.3881C60.9601 3.9239 46.8333 6.04323 41.7505 10.1539C83.4956 10.1284 163.953 10.0972 163.953 10.1575Z" fill="#606060"/>
<path d="M39.383 10.0622C39.9944 10.0618 41.1214 10.1542 41.7505 10.1539M147.348 3.2752C148.956 3.14068 152.385 3.34034 154.294 3.49292C149.838 3.18662 154.096 3.49292 156.783 3.68435C159.356 3.71498 162.81 8.01343 163.953 10.1575C163.953 10.0972 83.4956 10.1284 41.7505 10.1539M147.348 3.2752C146.871 3.31508 146.554 3.38434 146.483 3.49292C146.177 3.96769 146.932 3.54559 147.348 3.2752ZM147.348 3.2752L130.862 3.37806H67.3881C60.9601 3.9239 46.8333 6.04323 41.7505 10.1539" stroke="#606060"/>
<path d="M123.796 8.94522C124.156 9.09295 126.425 9.94613 126.65 10.4044" stroke="#606060"/>
<path d="M3.18774 11.3218C3.31022 10.1962 4.82535 5.29284 7.87661 3.15137" stroke="white"/>
<path d="M17.082 80.178C17.082 80.7945 17.2034 81.405 17.4393 81.9746C17.6753 82.5442 18.0211 83.0617 18.457 83.4977C18.893 83.9336 19.4105 84.2794 19.9801 84.5154C20.5497 84.7513 21.1602 84.8727 21.7767 84.8727C22.3932 84.8727 23.0037 84.7513 23.5733 84.5154C24.1429 84.2794 24.6604 83.9336 25.0964 83.4977C25.5323 83.0617 25.8781 82.5442 26.1141 81.9746C26.35 81.405 26.4714 80.7945 26.4714 80.178L21.7767 80.178H17.082Z" fill="black"/>
<path d="M30.0413 80.178C30.0413 80.7945 30.1628 81.405 30.3987 81.9746C30.6346 82.5442 30.9804 83.0617 31.4164 83.4977C31.8523 83.9336 32.3699 84.2794 32.9395 84.5154C33.509 84.7513 34.1195 84.8727 34.7361 84.8727C35.3526 84.8727 35.9631 84.7513 36.5327 84.5154C37.1022 84.2794 37.6198 83.9336 38.0557 83.4977C38.4917 83.0617 38.8375 82.5442 39.0734 81.9746C39.3094 81.405 39.4308 80.7945 39.4308 80.178L34.7361 80.178H30.0413Z" fill="black"/>
<path d="M43.0007 80.178C43.0007 80.7945 43.1221 81.405 43.358 81.9746C43.594 82.5442 43.9398 83.0617 44.3757 83.4977C44.8117 83.9336 45.3292 84.2794 45.8988 84.5154C46.4684 84.7513 47.0789 84.8727 47.6954 84.8727C48.3119 84.8727 48.9224 84.7513 49.492 84.5154C50.0616 84.2794 50.5791 83.9336 51.0151 83.4977C51.451 83.0617 51.7968 82.5442 52.0328 81.9746C52.2687 81.405 52.3901 80.7945 52.3901 80.178L47.6954 80.178H43.0007Z" fill="black"/>
<path d="M114.58 80.178C114.58 80.7945 114.701 81.405 114.937 81.9746C115.173 82.5442 115.519 83.0617 115.955 83.4977C116.391 83.9336 116.908 84.2794 117.478 84.5154C118.048 84.7513 118.658 84.8727 119.275 84.8727C119.891 84.8727 120.502 84.7513 121.071 84.5154C121.641 84.2794 122.158 83.9336 122.594 83.4977C123.03 83.0617 123.376 82.5442 123.612 81.9746C123.848 81.405 123.969 80.7945 123.969 80.178L119.275 80.178H114.58Z" fill="black"/>
<path d="M127.539 80.178C127.539 80.7945 127.661 81.405 127.897 81.9746C128.133 82.5442 128.478 83.0617 128.914 83.4977C129.35 83.9336 129.868 84.2794 130.437 84.5154C131.007 84.7513 131.617 84.8727 132.234 84.8727C132.85 84.8727 133.461 84.7513 134.031 84.5154C134.6 84.2794 135.118 83.9336 135.554 83.4977C135.99 83.0617 136.335 82.5442 136.571 81.9746C136.807 81.405 136.929 80.7945 136.929 80.178L132.234 80.178H127.539Z" fill="black"/>
<path d="M140.499 80.178C140.499 80.7945 140.62 81.405 140.856 81.9746C141.092 82.5442 141.438 83.0617 141.874 83.4977C142.31 83.9336 142.827 84.2794 143.397 84.5154C143.966 84.7513 144.577 84.8727 145.193 84.8727C145.81 84.8727 146.42 84.7513 146.99 84.5154C147.559 84.2794 148.077 83.9336 148.513 83.4977C148.949 83.0617 149.295 82.5442 149.531 81.9746C149.767 81.405 149.888 80.7945 149.888 80.178L145.193 80.178H140.499Z" fill="black"/>
<path d="M154.933 1C159.831 3.41107 164.309 8.34801 164.003 13.2849" stroke="white"/>
<path d="M163.391 5.74561L165.878 13.0553" stroke="white" stroke-width="2"/>
<path d="M4.02136 42.5H163.021V70C163.021 75.2467 158.768 79.5 153.521 79.5H13.5214C8.27466 79.5 4.02136 75.2467 4.02136 70V42.5Z" fill="#79F665" stroke="black"/>
<path d="M84.0926 66.1491C83.6452 66.142 83.1977 66.0568 82.7503 65.8935C82.3028 65.7301 81.8945 65.4549 81.5251 65.0678C81.1558 64.6772 80.8593 64.1499 80.6356 63.4858C80.4119 62.8182 80.3 61.9801 80.3 60.9716C80.3 60.0057 80.3905 59.1499 80.5717 58.4041C80.7528 57.6548 81.0155 57.0245 81.36 56.5131C81.7045 55.9982 82.12 55.6076 82.6065 55.3413C83.0965 55.0749 83.6487 54.9418 84.2631 54.9418C84.8739 54.9418 85.4172 55.0643 85.893 55.3093C86.3724 55.5508 86.7631 55.8881 87.0649 56.3214C87.3668 56.7546 87.5621 57.2536 87.6508 57.8182H86.3511C86.2304 57.3281 85.996 56.9215 85.648 56.5984C85.3 56.2752 84.8383 56.1136 84.2631 56.1136C83.4179 56.1136 82.7521 56.4812 82.2655 57.2163C81.7826 57.9513 81.5393 58.983 81.5358 60.3111H81.621C81.8199 60.0092 82.056 59.7518 82.3295 59.5387C82.6065 59.3221 82.9119 59.1552 83.2457 59.038C83.5795 58.9208 83.9328 58.8622 84.3057 58.8622C84.9307 58.8622 85.5024 59.0185 86.0209 59.331C86.5393 59.6399 86.9548 60.0678 87.2673 60.6147C87.5798 61.158 87.7361 61.7812 87.7361 62.4844C87.7361 63.1591 87.5851 63.777 87.2833 64.3381C86.9815 64.8956 86.5571 65.3395 86.0102 65.6697C85.4669 65.9964 84.8277 66.1562 84.0926 66.1491ZM84.0926 64.9773C84.5401 64.9773 84.9413 64.8654 85.2964 64.6417C85.6551 64.418 85.9374 64.1179 86.1434 63.7415C86.3529 63.3651 86.4577 62.946 86.4577 62.4844C86.4577 62.0334 86.3565 61.6232 86.154 61.2539C85.9552 60.881 85.68 60.5845 85.3284 60.3643C84.9804 60.1442 84.5827 60.0341 84.1352 60.0341C83.7979 60.0341 83.4836 60.1016 83.1924 60.2365C82.9012 60.3679 82.6455 60.549 82.4253 60.7798C82.2087 61.0107 82.0383 61.2752 81.914 61.5735C81.7897 61.8683 81.7276 62.179 81.7276 62.5057C81.7276 62.9389 81.8288 63.3437 82.0312 63.7202C82.2371 64.0966 82.5177 64.4002 82.8728 64.631C83.2315 64.8619 83.6381 64.9773 84.0926 64.9773Z" fill="black"/>
</svg>
