<svg width="167" height="85" viewBox="0 0 167 85" fill="none" xmlns="http://www.w3.org/2000/svg">
<path d="M3.49921 13.178C3.49921 7.65516 7.97636 3.17801 13.4992 3.17801H153.499C159.022 3.17801 163.499 7.65516 163.499 13.178V70.178C163.499 75.7009 159.022 80.178 153.499 80.178H13.4992C7.97636 80.178 3.49921 75.7009 3.49921 70.178V13.178Z" fill="#8D8D8D"/>
<path d="M127.074 37.3008L3.6897 37.142V41.4701H127.074H127.698H162.953V37.3008H127.074Z" fill="#606060"/>
<path d="M127.698 41.4701H127.074M127.074 41.4701H3.6897V37.142L127.074 37.3008H162.953V41.4701H127.074Z" stroke="#606060"/>
<path d="M2 36.3334V42.1053" stroke="white" stroke-width="3"/>
<rect x="24.4714" y="21.5316" width="22.6628" height="10.8112" rx="2" fill="#373737"/>
<rect x="28.0975" y="21.5316" width="15.4107" height="10.8112" fill="#D9D9D9"/>
<rect x="72.0846" y="21.5316" width="22.6628" height="10.8112" rx="2" fill="#373737"/>
<rect x="75.7107" y="21.5316" width="15.4107" height="10.8112" fill="#D9D9D9"/>
<rect x="119.697" y="21.5316" width="22.6628" height="10.8112" rx="2" fill="#373737"/>
<rect x="123.323" y="21.5316" width="15.4107" height="10.8112" fill="#D9D9D9"/>
<path d="M3.46768 10.1575C4.60994 8.01343 8.06453 3.71498 10.6375 3.68435C13.324 3.49292 17.5829 3.18662 13.1262 3.49292C15.0359 3.34034 18.4642 3.14068 20.0729 3.2752L36.5585 3.37806H100.032C106.46 3.9239 120.587 6.04323 125.67 10.1539C83.9248 10.1284 3.46768 10.0972 3.46768 10.1575Z" fill="#606060"/>
<path d="M128.037 10.0622C127.426 10.0618 126.299 10.1542 125.67 10.1539M20.0729 3.2752C18.4642 3.14068 15.0359 3.34034 13.1262 3.49292C17.5829 3.18662 13.324 3.49292 10.6375 3.68435C8.06453 3.71498 4.60994 8.01343 3.46768 10.1575C3.46768 10.0972 83.9248 10.1284 125.67 10.1539M20.0729 3.2752C20.5499 3.31508 20.8669 3.38434 20.937 3.49292C21.2433 3.96769 20.4885 3.54559 20.0729 3.2752ZM20.0729 3.2752L36.5585 3.37806H100.032C106.46 3.9239 120.587 6.04323 125.67 10.1539" stroke="#606060"/>
<path d="M163.953 10.1575C162.81 8.01343 159.356 3.71498 156.783 3.68435C154.096 3.49292 149.837 3.18662 154.294 3.49292C152.385 3.34034 148.956 3.14068 147.348 3.2752L130.862 3.37806H67.3881C60.9601 3.9239 46.8333 6.04323 41.7505 10.1539C83.4956 10.1284 163.953 10.0972 163.953 10.1575Z" fill="#606060"/>
<path d="M39.383 10.0622C39.9944 10.0618 41.1214 10.1542 41.7505 10.1539M147.348 3.2752C148.956 3.14068 152.385 3.34034 154.294 3.49292C149.838 3.18662 154.096 3.49292 156.783 3.68435C159.356 3.71498 162.81 8.01343 163.953 10.1575C163.953 10.0972 83.4956 10.1284 41.7505 10.1539M147.348 3.2752C146.871 3.31508 146.554 3.38434 146.483 3.49292C146.177 3.96769 146.932 3.54559 147.348 3.2752ZM147.348 3.2752L130.862 3.37806H67.3881C60.9601 3.9239 46.8333 6.04323 41.7505 10.1539" stroke="#606060"/>
<path d="M123.796 8.94522C124.156 9.09295 126.425 9.94613 126.65 10.4044" stroke="#606060"/>
<path d="M3.18774 11.3218C3.31022 10.1962 4.82535 5.29284 7.87661 3.15137" stroke="white"/>
<path d="M17.082 80.178C17.082 80.7945 17.2034 81.405 17.4393 81.9746C17.6753 82.5442 18.0211 83.0617 18.457 83.4977C18.893 83.9336 19.4105 84.2794 19.9801 84.5154C20.5497 84.7513 21.1602 84.8727 21.7767 84.8727C22.3932 84.8727 23.0037 84.7513 23.5733 84.5154C24.1429 84.2794 24.6604 83.9336 25.0964 83.4977C25.5323 83.0617 25.8781 82.5442 26.1141 81.9746C26.35 81.405 26.4714 80.7945 26.4714 80.178L21.7767 80.178H17.082Z" fill="black"/>
<path d="M30.0413 80.178C30.0413 80.7945 30.1628 81.405 30.3987 81.9746C30.6346 82.5442 30.9804 83.0617 31.4164 83.4977C31.8523 83.9336 32.3699 84.2794 32.9395 84.5154C33.509 84.7513 34.1195 84.8727 34.7361 84.8727C35.3526 84.8727 35.9631 84.7513 36.5327 84.5154C37.1022 84.2794 37.6198 83.9336 38.0557 83.4977C38.4917 83.0617 38.8375 82.5442 39.0734 81.9746C39.3094 81.405 39.4308 80.7945 39.4308 80.178L34.7361 80.178H30.0413Z" fill="black"/>
<path d="M43.0007 80.178C43.0007 80.7945 43.1221 81.405 43.358 81.9746C43.594 82.5442 43.9398 83.0617 44.3757 83.4977C44.8117 83.9336 45.3292 84.2794 45.8988 84.5154C46.4684 84.7513 47.0789 84.8727 47.6954 84.8727C48.3119 84.8727 48.9224 84.7513 49.492 84.5154C50.0616 84.2794 50.5791 83.9336 51.0151 83.4977C51.451 83.0617 51.7968 82.5442 52.0328 81.9746C52.2687 81.405 52.3901 80.7945 52.3901 80.178L47.6954 80.178H43.0007Z" fill="black"/>
<path d="M114.58 80.178C114.58 80.7945 114.701 81.405 114.937 81.9746C115.173 82.5442 115.519 83.0617 115.955 83.4977C116.391 83.9336 116.908 84.2794 117.478 84.5154C118.048 84.7513 118.658 84.8727 119.275 84.8727C119.891 84.8727 120.502 84.7513 121.071 84.5154C121.641 84.2794 122.158 83.9336 122.594 83.4977C123.03 83.0617 123.376 82.5442 123.612 81.9746C123.848 81.405 123.969 80.7945 123.969 80.178L119.275 80.178H114.58Z" fill="black"/>
<path d="M127.539 80.178C127.539 80.7945 127.661 81.405 127.897 81.9746C128.133 82.5442 128.478 83.0617 128.914 83.4977C129.35 83.9336 129.868 84.2794 130.437 84.5154C131.007 84.7513 131.617 84.8727 132.234 84.8727C132.85 84.8727 133.461 84.7513 134.031 84.5154C134.6 84.2794 135.118 83.9336 135.554 83.4977C135.99 83.0617 136.335 82.5442 136.571 81.9746C136.807 81.405 136.929 80.7945 136.929 80.178L132.234 80.178H127.539Z" fill="black"/>
<path d="M140.499 80.178C140.499 80.7945 140.62 81.405 140.856 81.9746C141.092 82.5442 141.438 83.0617 141.874 83.4977C142.31 83.9336 142.827 84.2794 143.397 84.5154C143.966 84.7513 144.577 84.8727 145.193 84.8727C145.81 84.8727 146.42 84.7513 146.99 84.5154C147.559 84.2794 148.077 83.9336 148.513 83.4977C148.949 83.0617 149.295 82.5442 149.531 81.9746C149.767 81.405 149.888 80.7945 149.888 80.178L145.193 80.178H140.499Z" fill="black"/>
<path d="M154.933 1C159.831 3.41107 164.309 8.34801 164.003 13.2849" stroke="white"/>
<path d="M163.391 5.74561L165.878 13.0553" stroke="white" stroke-width="2"/>
<path d="M4.02136 42.5H163.021V70C163.021 75.2467 158.768 79.5 153.521 79.5H13.5214C8.27466 79.5 4.02136 75.2467 4.02136 70V42.5Z" fill="#79F665" stroke="black"/>
<path d="M84.0234 66.1491C83.2918 66.1491 82.6455 66.0195 82.0844 65.7603C81.5269 65.4975 81.0919 65.1371 80.7794 64.679C80.4669 64.2173 80.3124 63.6918 80.316 63.1023C80.3124 62.6406 80.403 62.2145 80.5876 61.8239C80.7723 61.4297 81.0244 61.1012 81.344 60.8384C81.6672 60.5721 82.0276 60.4034 82.4253 60.3324V60.2685C81.9033 60.1335 81.4878 59.8406 81.1789 59.3896C80.87 58.935 80.7173 58.4183 80.7208 57.8395C80.7173 57.2855 80.8575 56.7901 81.1416 56.3533C81.4257 55.9165 81.8163 55.5721 82.3135 55.32C82.8142 55.0678 83.3842 54.9418 84.0234 54.9418C84.6555 54.9418 85.2201 55.0678 85.7173 55.32C86.2144 55.5721 86.605 55.9165 86.8891 56.3533C87.1768 56.7901 87.3224 57.2855 87.3259 57.8395C87.3224 58.4183 87.1643 58.935 86.8518 59.3896C86.5429 59.8406 86.1327 60.1335 85.6214 60.2685V60.3324C86.0155 60.4034 86.3707 60.5721 86.6867 60.8384C87.0028 61.1012 87.2549 61.4297 87.4431 61.8239C87.6313 62.2145 87.7272 62.6406 87.7307 63.1023C87.7272 63.6918 87.5674 64.2173 87.2513 64.679C86.9388 65.1371 86.5038 65.4975 85.9463 65.7603C85.3923 66.0195 84.7513 66.1491 84.0234 66.1491ZM84.0234 64.9773C84.517 64.9773 84.9431 64.8974 85.3018 64.7376C85.6604 64.5778 85.9374 64.3523 86.1327 64.0611C86.328 63.7699 86.4275 63.429 86.431 63.0384C86.4275 62.6264 86.3209 62.2624 86.1114 61.9464C85.9019 61.6303 85.616 61.3817 85.2538 61.2006C84.8952 61.0195 84.485 60.929 84.0234 60.929C83.5582 60.929 83.1427 61.0195 82.7769 61.2006C82.4147 61.3817 82.1288 61.6303 81.9193 61.9464C81.7133 62.2624 81.6121 62.6264 81.6157 63.0384C81.6121 63.429 81.7062 63.7699 81.898 64.0611C82.0933 64.3523 82.3721 64.5778 82.7343 64.7376C83.0965 64.8974 83.5262 64.9773 84.0234 64.9773ZM84.0234 59.7997C84.414 59.7997 84.7602 59.7216 85.0621 59.5653C85.3675 59.4091 85.6072 59.1907 85.7812 58.9102C85.9552 58.6296 86.044 58.3011 86.0475 57.9247C86.044 57.5554 85.957 57.234 85.7865 56.9606C85.616 56.6836 85.3799 56.4705 85.078 56.3214C84.7762 56.1687 84.4246 56.0923 84.0234 56.0923C83.615 56.0923 83.2581 56.1687 82.9527 56.3214C82.6473 56.4705 82.4111 56.6836 82.2442 56.9606C82.0773 57.234 81.9957 57.5554 81.9992 57.9247C81.9957 58.3011 82.0791 58.6296 82.2496 58.9102C82.4236 59.1907 82.6633 59.4091 82.9687 59.5653C83.2741 59.7216 83.6256 59.7997 84.0234 59.7997Z" fill="black"/>
</svg>
