<svg width="167" height="85" viewBox="0 0 167 85" fill="none" xmlns="http://www.w3.org/2000/svg">
<path d="M3.49921 13.178C3.49921 7.65516 7.97636 3.17801 13.4992 3.17801H153.499C159.022 3.17801 163.499 7.65516 163.499 13.178V70.178C163.499 75.7009 159.022 80.178 153.499 80.178H13.4992C7.97636 80.178 3.49921 75.7009 3.49921 70.178V13.178Z" fill="#8D8D8D"/>
<path d="M127.074 37.3008L3.6897 37.142V41.4701H127.074H127.698H162.953V37.3008H127.074Z" fill="#606060"/>
<path d="M127.698 41.4701H127.074M127.074 41.4701H3.6897V37.142L127.074 37.3008H162.953V41.4701H127.074Z" stroke="#606060"/>
<path d="M2 36.3334V42.1053" stroke="white" stroke-width="3"/>
<rect x="24.4714" y="21.5316" width="22.6628" height="10.8112" rx="2" fill="#373737"/>
<rect x="28.0975" y="21.5316" width="15.4107" height="10.8112" fill="#D9D9D9"/>
<rect x="72.0846" y="21.5316" width="22.6628" height="10.8112" rx="2" fill="#373737"/>
<rect x="75.7107" y="21.5316" width="15.4107" height="10.8112" fill="#D9D9D9"/>
<rect x="119.697" y="21.5316" width="22.6628" height="10.8112" rx="2" fill="#373737"/>
<rect x="123.323" y="21.5316" width="15.4107" height="10.8112" fill="#D9D9D9"/>
<path d="M3.46765 10.1575C4.60991 8.01343 8.0645 3.71498 10.6375 3.68435C13.324 3.49292 17.5829 3.18662 13.1262 3.49292C15.0359 3.34034 18.4641 3.14068 20.0729 3.2752L36.5585 3.37806H100.032C106.46 3.9239 120.587 6.04323 125.67 10.1539C83.9248 10.1284 3.46765 10.0972 3.46765 10.1575Z" fill="#606060"/>
<path d="M128.037 10.0622C127.426 10.0618 126.299 10.1542 125.67 10.1539M20.0729 3.2752C18.4641 3.14068 15.0359 3.34034 13.1262 3.49292C17.5829 3.18662 13.324 3.49292 10.6375 3.68435C8.0645 3.71498 4.60991 8.01343 3.46765 10.1575C3.46765 10.0972 83.9248 10.1284 125.67 10.1539M20.0729 3.2752C20.5499 3.31508 20.8669 3.38434 20.9369 3.49292C21.2432 3.96769 20.4885 3.54559 20.0729 3.2752ZM20.0729 3.2752L36.5585 3.37806H100.032C106.46 3.9239 120.587 6.04323 125.67 10.1539" stroke="#606060"/>
<path d="M163.953 10.1575C162.81 8.01343 159.356 3.71498 156.783 3.68435C154.096 3.49292 149.837 3.18662 154.294 3.49292C152.385 3.34034 148.956 3.14068 147.348 3.2752L130.862 3.37806H67.3881C60.9601 3.9239 46.8333 6.04323 41.7505 10.1539C83.4956 10.1284 163.953 10.0972 163.953 10.1575Z" fill="#606060"/>
<path d="M39.383 10.0622C39.9944 10.0618 41.1214 10.1542 41.7505 10.1539M147.348 3.2752C148.956 3.14068 152.385 3.34034 154.294 3.49292C149.838 3.18662 154.096 3.49292 156.783 3.68435C159.356 3.71498 162.81 8.01343 163.953 10.1575C163.953 10.0972 83.4956 10.1284 41.7505 10.1539M147.348 3.2752C146.871 3.31508 146.554 3.38434 146.483 3.49292C146.177 3.96769 146.932 3.54559 147.348 3.2752ZM147.348 3.2752L130.862 3.37806H67.3881C60.9601 3.9239 46.8333 6.04323 41.7505 10.1539" stroke="#606060"/>
<path d="M123.796 8.94522C124.156 9.09295 126.425 9.94613 126.65 10.4044" stroke="#606060"/>
<path d="M3.18774 11.3218C3.31022 10.1962 4.82535 5.29284 7.87661 3.15137" stroke="white"/>
<path d="M17.082 80.178C17.082 80.7945 17.2034 81.405 17.4393 81.9746C17.6753 82.5442 18.0211 83.0617 18.457 83.4977C18.893 83.9336 19.4105 84.2794 19.9801 84.5154C20.5497 84.7513 21.1602 84.8727 21.7767 84.8727C22.3932 84.8727 23.0037 84.7513 23.5733 84.5154C24.1429 84.2794 24.6604 83.9336 25.0964 83.4977C25.5323 83.0617 25.8781 82.5442 26.1141 81.9746C26.35 81.405 26.4714 80.7945 26.4714 80.178L21.7767 80.178H17.082Z" fill="black"/>
<path d="M30.0413 80.178C30.0413 80.7945 30.1628 81.405 30.3987 81.9746C30.6346 82.5442 30.9804 83.0617 31.4164 83.4977C31.8523 83.9336 32.3699 84.2794 32.9395 84.5154C33.509 84.7513 34.1195 84.8727 34.7361 84.8727C35.3526 84.8727 35.9631 84.7513 36.5327 84.5154C37.1022 84.2794 37.6198 83.9336 38.0557 83.4977C38.4917 83.0617 38.8375 82.5442 39.0734 81.9746C39.3094 81.405 39.4308 80.7945 39.4308 80.178L34.7361 80.178H30.0413Z" fill="black"/>
<path d="M43.0007 80.178C43.0007 80.7945 43.1221 81.405 43.358 81.9746C43.594 82.5442 43.9398 83.0617 44.3757 83.4977C44.8117 83.9336 45.3292 84.2794 45.8988 84.5154C46.4684 84.7513 47.0789 84.8727 47.6954 84.8727C48.3119 84.8727 48.9224 84.7513 49.492 84.5154C50.0616 84.2794 50.5791 83.9336 51.0151 83.4977C51.451 83.0617 51.7968 82.5442 52.0328 81.9746C52.2687 81.405 52.3901 80.7945 52.3901 80.178L47.6954 80.178H43.0007Z" fill="black"/>
<path d="M114.58 80.178C114.58 80.7945 114.701 81.405 114.937 81.9746C115.173 82.5442 115.519 83.0617 115.955 83.4977C116.391 83.9336 116.908 84.2794 117.478 84.5154C118.048 84.7513 118.658 84.8727 119.275 84.8727C119.891 84.8727 120.502 84.7513 121.071 84.5154C121.641 84.2794 122.158 83.9336 122.594 83.4977C123.03 83.0617 123.376 82.5442 123.612 81.9746C123.848 81.405 123.969 80.7945 123.969 80.178L119.275 80.178H114.58Z" fill="black"/>
<path d="M127.539 80.178C127.539 80.7945 127.661 81.405 127.897 81.9746C128.133 82.5442 128.478 83.0617 128.914 83.4977C129.35 83.9336 129.868 84.2794 130.437 84.5154C131.007 84.7513 131.617 84.8727 132.234 84.8727C132.85 84.8727 133.461 84.7513 134.031 84.5154C134.6 84.2794 135.118 83.9336 135.554 83.4977C135.99 83.0617 136.335 82.5442 136.571 81.9746C136.807 81.405 136.929 80.7945 136.929 80.178L132.234 80.178H127.539Z" fill="black"/>
<path d="M140.499 80.178C140.499 80.7945 140.62 81.405 140.856 81.9746C141.092 82.5442 141.438 83.0617 141.874 83.4977C142.31 83.9336 142.827 84.2794 143.397 84.5154C143.966 84.7513 144.577 84.8727 145.193 84.8727C145.81 84.8727 146.42 84.7513 146.99 84.5154C147.559 84.2794 148.077 83.9336 148.513 83.4977C148.949 83.0617 149.295 82.5442 149.531 81.9746C149.767 81.405 149.888 80.7945 149.888 80.178L145.193 80.178H140.499Z" fill="black"/>
<path d="M154.933 1C159.831 3.41107 164.309 8.34801 164.003 13.2849" stroke="white"/>
<path d="M163.391 5.74561L165.878 13.0553" stroke="white" stroke-width="2"/>
<path d="M4.02136 42.5H163.021V70C163.021 75.2467 158.768 79.5 153.521 79.5H13.5214C8.27466 79.5 4.02136 75.2467 4.02136 70V42.5Z" fill="#79F665" stroke="black"/>
<path d="M83.9435 54.9418C84.3909 54.9453 84.8383 55.0305 85.2858 55.1974C85.7332 55.3643 86.1416 55.6413 86.5109 56.0284C86.8802 56.4119 87.1768 56.9357 87.4005 57.5998C87.6242 58.2638 87.7361 59.0966 87.7361 60.098C87.7361 61.0675 87.6437 61.9286 87.4591 62.6815C87.278 63.4308 87.0152 64.0629 86.6707 64.5778C86.3298 65.0927 85.9143 65.4833 85.4243 65.7496C84.9378 66.016 84.3874 66.1491 83.773 66.1491C83.1622 66.1491 82.6171 66.0284 82.1377 65.7869C81.6619 65.5419 81.2712 65.2028 80.9658 64.7695C80.664 64.3327 80.4704 63.8267 80.3852 63.2514H81.6849C81.8021 63.7521 82.0347 64.1658 82.3827 64.4925C82.7343 64.8157 83.1977 64.9773 83.773 64.9773C84.6146 64.9773 85.2787 64.6097 85.7652 63.8746C86.2552 63.1396 86.5003 62.1009 86.5003 60.7585H86.4151C86.2162 61.0568 85.98 61.3143 85.7066 61.5309C85.4332 61.7475 85.1295 61.9144 84.7957 62.0316C84.4619 62.1488 84.1068 62.2074 83.7304 62.2074C83.1054 62.2074 82.5319 62.0529 82.0099 61.744C81.4914 61.4315 81.0759 61.0036 80.7634 60.4602C80.4545 59.9134 80.3 59.2884 80.3 58.5852C80.3 57.9176 80.4491 57.3068 80.7474 56.7528C81.0493 56.1953 81.4719 55.7514 82.0152 55.4212C82.5621 55.0909 83.2048 54.9311 83.9435 54.9418ZM83.9435 56.1136C83.496 56.1136 83.093 56.2255 82.7343 56.4492C82.3792 56.6694 82.0969 56.9677 81.8874 57.3441C81.6814 57.717 81.5784 58.1307 81.5784 58.5852C81.5784 59.0398 81.6778 59.4535 81.8767 59.8263C82.0791 60.1957 82.3543 60.4904 82.7023 60.7106C83.0539 60.9272 83.4534 61.0355 83.9008 61.0355C84.2382 61.0355 84.5525 60.9698 84.8437 60.8384C85.1349 60.7035 85.3888 60.5206 85.6054 60.2898C85.8256 60.0554 85.9978 59.7908 86.1221 59.4961C86.2464 59.1978 86.3085 58.8871 86.3085 58.5639C86.3085 58.1378 86.2055 57.7383 85.9996 57.3654C85.7972 56.9925 85.5166 56.6907 85.1579 56.4599C84.8028 56.229 84.398 56.1136 83.9435 56.1136Z" fill="black"/>
</svg>
