<svg width="168" height="85" viewBox="0 0 168 85" fill="none" xmlns="http://www.w3.org/2000/svg">
<path d="M3.97784 13C3.97784 7.47715 8.455 3 13.9778 3H153.978C159.501 3 163.978 7.47715 163.978 13V70C163.978 75.5229 159.501 80 153.978 80H13.9778C8.455 80 3.97784 75.5229 3.97784 70V13Z" fill="#8D8D8D"/>
<path d="M127.552 37.1228L4.16833 36.964V41.2921H127.552H128.177H163.431V37.1228H127.552Z" fill="#606060"/>
<path d="M128.177 41.2921H127.552M127.552 41.2921H4.16833V36.964L127.552 37.1228H163.431V41.2921H127.552Z" stroke="#606060"/>
<path d="M2.47864 36.1554V41.9272" stroke="white" stroke-width="3"/>
<rect x="24.9501" y="21.3535" width="22.6628" height="10.8112" rx="2" fill="#373737"/>
<rect x="28.5761" y="21.3535" width="15.4107" height="10.8112" fill="#D9D9D9"/>
<rect x="72.5633" y="21.3535" width="22.6628" height="10.8112" rx="2" fill="#373737"/>
<rect x="76.1893" y="21.3535" width="15.4107" height="10.8112" fill="#D9D9D9"/>
<rect x="120.176" y="21.3535" width="22.6628" height="10.8112" rx="2" fill="#373737"/>
<rect x="123.802" y="21.3535" width="15.4107" height="10.8112" fill="#D9D9D9"/>
<path d="M71.9778 40C71.9778 37.2386 74.2164 35 76.9778 35H90.9778C93.7393 35 95.9778 37.2386 95.9778 40V80H71.9778V40Z" fill="#D9D9D9"/>
<path d="M75.8947 47.1608C75.8947 46.3324 76.5662 45.6608 77.3947 45.6608H90.3947C91.2231 45.6608 91.8947 46.3324 91.8947 47.1608C91.8947 47.9893 91.2231 48.6608 90.3947 48.6608H77.3947C76.5662 48.6608 75.8947 47.9893 75.8947 47.1608Z" fill="white"/>
<path d="M75.8947 51.884C75.8947 51.0556 76.5662 50.384 77.3947 50.384H90.3947C91.2231 50.384 91.8947 51.0556 91.8947 51.884C91.8947 52.7125 91.2231 53.384 90.3947 53.384H77.3947C76.5662 53.384 75.8947 52.7125 75.8947 51.884Z" fill="white"/>
<path d="M75.8947 56.607C75.8947 55.7786 76.5662 55.107 77.3947 55.107H90.3947C91.2231 55.107 91.8947 55.7786 91.8947 56.607C91.8947 57.4355 91.2231 58.107 90.3947 58.107H77.3947C76.5662 58.107 75.8947 57.4355 75.8947 56.607Z" fill="white"/>
<path d="M75.8947 61.33C75.8947 60.5016 76.5662 59.83 77.3947 59.83H90.3947C91.2231 59.83 91.8947 60.5016 91.8947 61.33C91.8947 62.1584 91.2231 62.83 90.3947 62.83H77.3947C76.5662 62.83 75.8947 62.1584 75.8947 61.33Z" fill="white"/>
<path d="M3.94632 9.97954C5.08858 7.83542 8.54317 3.53697 11.1161 3.50634C13.8027 3.31491 18.0616 3.00861 13.6049 3.31491C15.5146 3.16233 18.9428 2.96268 20.5515 3.09719L37.0371 3.20005H100.511C106.939 3.74589 121.066 5.86522 126.149 9.97585C84.4035 9.95043 3.94632 9.91918 3.94632 9.97954Z" fill="#606060"/>
<path d="M128.516 9.88419C127.905 9.88381 126.778 9.97624 126.149 9.97585M20.5515 3.09719C18.9428 2.96268 15.5146 3.16233 13.6049 3.31491C18.0616 3.00861 13.8027 3.31491 11.1161 3.50634C8.54317 3.53697 5.08858 7.83542 3.94632 9.97954C3.94632 9.91918 84.4035 9.95043 126.149 9.97585M20.5515 3.09719C21.0285 3.13707 21.3456 3.20633 21.4156 3.31491C21.7219 3.78969 20.9672 3.36758 20.5515 3.09719ZM20.5515 3.09719L37.0371 3.20005H100.511C106.939 3.74589 121.066 5.86522 126.149 9.97585" stroke="#606060"/>
<path d="M164.431 9.97954C163.289 7.83542 159.835 3.53697 157.262 3.50634C154.575 3.31491 150.316 3.00861 154.773 3.31491C152.863 3.16233 149.435 2.96268 147.826 3.09719L131.341 3.20005H67.8668C61.4387 3.74589 47.3119 5.86522 42.2291 9.97585C83.9742 9.95043 164.431 9.91918 164.431 9.97954Z" fill="#606060"/>
<path d="M39.8617 9.88419C40.473 9.88381 41.6 9.97624 42.2291 9.97585M147.826 3.09719C149.435 2.96268 152.863 3.16233 154.773 3.31491C150.316 3.00861 154.575 3.31491 157.262 3.50634C159.835 3.53697 163.289 7.83542 164.431 9.97954C164.431 9.91918 83.9742 9.95043 42.2291 9.97585M147.826 3.09719C147.349 3.13707 147.032 3.20633 146.962 3.31491C146.656 3.78969 147.411 3.36758 147.826 3.09719ZM147.826 3.09719L131.341 3.20005H67.8668C61.4387 3.74589 47.3119 5.86522 42.2291 9.97585" stroke="#606060"/>
<path d="M124.275 8.76721C124.635 8.91494 126.903 9.76812 127.128 10.2264" stroke="#606060"/>
<path d="M3.66638 11.1438C3.78886 10.0182 5.30399 5.11483 8.35525 2.97336" stroke="white"/>
<path d="M17.5606 80C17.5606 80.6165 17.682 81.227 17.918 81.7966C18.1539 82.3662 18.4997 82.8837 18.9357 83.3197C19.3716 83.7556 19.8892 84.1014 20.4587 84.3374C21.0283 84.5733 21.6388 84.6947 22.2553 84.6947C22.8719 84.6947 23.4823 84.5733 24.0519 84.3374C24.6215 84.1014 25.1391 83.7556 25.575 83.3197C26.011 82.8837 26.3568 82.3662 26.5927 81.7966C26.8286 81.227 26.9501 80.6165 26.9501 80L22.2553 80H17.5606Z" fill="black"/>
<path d="M30.52 80C30.52 80.6165 30.6414 81.227 30.8773 81.7966C31.1133 82.3662 31.4591 82.8837 31.895 83.3197C32.331 83.7556 32.8485 84.1014 33.4181 84.3374C33.9877 84.5733 34.5982 84.6947 35.2147 84.6947C35.8312 84.6947 36.4417 84.5733 37.0113 84.3374C37.5809 84.1014 38.0984 83.7556 38.5344 83.3197C38.9703 82.8837 39.3161 82.3662 39.5521 81.7966C39.788 81.227 39.9094 80.6165 39.9094 80L35.2147 80H30.52Z" fill="black"/>
<path d="M43.4793 80C43.4793 80.6165 43.6007 81.227 43.8367 81.7966C44.0726 82.3662 44.4184 82.8837 44.8544 83.3197C45.2903 83.7556 45.8079 84.1014 46.3774 84.3374C46.947 84.5733 47.5575 84.6947 48.174 84.6947C48.7906 84.6947 49.401 84.5733 49.9706 84.3374C50.5402 84.1014 51.0578 83.7556 51.4937 83.3197C51.9297 82.8837 52.2755 82.3662 52.5114 81.7966C52.7473 81.227 52.8688 80.6165 52.8688 80L48.174 80H43.4793Z" fill="black"/>
<path d="M115.059 80C115.059 80.6165 115.18 81.227 115.416 81.7966C115.652 82.3662 115.998 82.8837 116.434 83.3197C116.87 83.7556 117.387 84.1014 117.957 84.3374C118.526 84.5733 119.137 84.6947 119.753 84.6947C120.37 84.6947 120.98 84.5733 121.55 84.3374C122.119 84.1014 122.637 83.7556 123.073 83.3197C123.509 82.8837 123.855 82.3662 124.091 81.7966C124.327 81.227 124.448 80.6165 124.448 80L119.753 80H115.059Z" fill="black"/>
<path d="M128.018 80C128.018 80.6165 128.139 81.227 128.375 81.7966C128.611 82.3662 128.957 82.8837 129.393 83.3197C129.829 83.7556 130.346 84.1014 130.916 84.3374C131.486 84.5733 132.096 84.6947 132.713 84.6947C133.329 84.6947 133.94 84.5733 134.509 84.3374C135.079 84.1014 135.596 83.7556 136.032 83.3197C136.468 82.8837 136.814 82.3662 137.05 81.7966C137.286 81.227 137.407 80.6165 137.407 80L132.713 80H128.018Z" fill="black"/>
<path d="M140.977 80C140.977 80.6165 141.099 81.227 141.335 81.7966C141.571 82.3662 141.916 82.8837 142.352 83.3197C142.788 83.7556 143.306 84.1014 143.875 84.3374C144.445 84.5733 145.055 84.6947 145.672 84.6947C146.288 84.6947 146.899 84.5733 147.469 84.3374C148.038 84.1014 148.556 83.7556 148.992 83.3197C149.428 82.8837 149.773 82.3662 150.009 81.7966C150.245 81.227 150.367 80.6165 150.367 80L145.672 80H140.977Z" fill="black"/>
<path d="M155.411 0.821991C160.31 3.23306 164.788 8.17 164.482 13.1069" stroke="white"/>
<path d="M163.869 5.5676L166.357 12.8773" stroke="white" stroke-width="2"/>
</svg>
