<svg width="164" height="83" viewBox="0 0 164 83" fill="none" xmlns="http://www.w3.org/2000/svg">
<path d="M3 11C3 5.47715 7.47715 1 13 1H97.7458C133.785 1 163 30.2153 163 66.2542C163 72.7412 157.741 78 151.254 78H13C7.47715 78 3 73.5229 3 68V11Z" fill="#8D8D8D"/>
<path d="M127.693 8.81158C117.356 17.6231 108.394 33.8484 159.991 47.543C156.948 29.4218 137.969 13.8006 127.693 8.81158Z" fill="#CDCDCD" stroke="#CDCDCD"/>
<path d="M126.91 35.1228L3.19051 34.964V39.2921H127.537C138.486 42.8215 160.665 50.9007 161.78 54.9814L160.076 48.1029C155.18 48.7212 135.717 39.76 126.91 35.1228Z" fill="#606060" stroke="#606060"/>
<path d="M1.50082 34.1554V39.9272" stroke="white" stroke-width="3"/>
<rect x="10.9579" y="19.3535" width="22.6628" height="10.8112" rx="2" fill="#373737"/>
<rect x="14.5839" y="19.3535" width="15.4107" height="10.8112" fill="#D9D9D9"/>
<rect x="57.7466" y="19.3535" width="22.6628" height="10.8112" rx="2" fill="#373737"/>
<rect x="61.3726" y="19.3535" width="15.4107" height="10.8112" fill="#D9D9D9"/>
<path d="M85.7134 38C85.7134 35.2386 87.9519 33 90.7134 33H104.713C107.475 33 109.713 35.2386 109.713 38V78H85.7134V38Z" fill="#D9D9D9"/>
<path d="M89.6302 45.1608C89.6302 44.3324 90.3018 43.6608 91.1302 43.6608H104.13C104.959 43.6608 105.63 44.3324 105.63 45.1608C105.63 45.9893 104.959 46.6608 104.13 46.6608H91.1302C90.3018 46.6608 89.6302 45.9893 89.6302 45.1608Z" fill="white"/>
<path d="M89.6302 49.884C89.6302 49.0556 90.3018 48.384 91.1302 48.384H104.13C104.959 48.384 105.63 49.0556 105.63 49.884C105.63 50.7125 104.959 51.384 104.13 51.384H91.1302C90.3018 51.384 89.6302 50.7125 89.6302 49.884Z" fill="white"/>
<path d="M89.6302 54.607C89.6302 53.7786 90.3018 53.107 91.1302 53.107H104.13C104.959 53.107 105.63 53.7786 105.63 54.607C105.63 55.4355 104.959 56.107 104.13 56.107H91.1302C90.3018 56.107 89.6302 55.4355 89.6302 54.607Z" fill="white"/>
<path d="M89.6302 59.33C89.6302 58.5016 90.3018 57.83 91.1302 57.83H104.13C104.959 57.83 105.63 58.5016 105.63 59.33C105.63 60.1584 104.959 60.83 104.13 60.83H91.1302C90.3018 60.83 89.6302 60.1584 89.6302 59.33Z" fill="white"/>
<line x1="161.47" y1="48.795" x2="162.74" y2="56.0165" stroke="white"/>
<path d="M2.96849 7.97954C4.11075 5.83542 7.56534 1.53697 10.1383 1.50634C12.8248 1.31491 17.0837 1.00861 12.627 1.31491C14.5367 1.16233 17.965 0.962676 19.5737 1.09719L36.0593 1.20005H99.5331C105.961 1.74589 120.088 3.86522 125.171 7.97585C83.4256 7.95043 2.96849 7.91918 2.96849 7.97954Z" fill="#606060"/>
<path d="M127.538 7.88419C126.927 7.88381 125.8 7.97624 125.171 7.97585M19.5737 1.09719C17.965 0.962676 14.5367 1.16233 12.627 1.31491C17.0837 1.00861 12.8248 1.31491 10.1383 1.50634C7.56534 1.53697 4.11075 5.83542 2.96849 7.97954C2.96849 7.91918 83.4256 7.95043 125.171 7.97585M19.5737 1.09719C20.0507 1.13707 20.3677 1.20633 20.4378 1.31491C20.7441 1.78969 19.9894 1.36758 19.5737 1.09719ZM19.5737 1.09719L36.0593 1.20005H99.5331C105.961 1.74589 120.088 3.86522 125.171 7.97585" stroke="#606060"/>
<path d="M125.599 6.68073C126.226 7.04102 127.757 7.69678 127.955 7.86972" stroke="white"/>
<path d="M123.297 6.76721C123.657 6.91494 125.926 7.76812 126.15 8.2264" stroke="#606060"/>
<path d="M2.68855 9.14376C2.81103 8.0182 4.32616 3.11483 7.37742 0.973358" stroke="white"/>
<path d="M14.5828 78C14.5828 78.6165 14.7042 79.227 14.9402 79.7966C15.1761 80.3662 15.5219 80.8837 15.9578 81.3197C16.3938 81.7556 16.9113 82.1014 17.4809 82.3374C18.0505 82.5733 18.661 82.6947 19.2775 82.6947C19.894 82.6947 20.5045 82.5733 21.0741 82.3374C21.6437 82.1014 22.1613 81.7556 22.5972 81.3197C23.0332 80.8837 23.379 80.3662 23.6149 79.7966C23.8508 79.227 23.9723 78.6165 23.9723 78L19.2775 78H14.5828Z" fill="black"/>
<path d="M27.5421 78C27.5421 78.6165 27.6636 79.227 27.8995 79.7966C28.1354 80.3662 28.4813 80.8837 28.9172 81.3197C29.3531 81.7556 29.8707 82.1014 30.4403 82.3374C31.0099 82.5733 31.6204 82.6947 32.2369 82.6947C32.8534 82.6947 33.4639 82.5733 34.0335 82.3374C34.6031 82.1014 35.1206 81.7556 35.5566 81.3197C35.9925 80.8837 36.3383 80.3662 36.5742 79.7966C36.8102 79.227 36.9316 78.6165 36.9316 78L32.2369 78H27.5421Z" fill="black"/>
<path d="M40.5015 78C40.5015 78.6165 40.6229 79.227 40.8589 79.7966C41.0948 80.3662 41.4406 80.8837 41.8766 81.3197C42.3125 81.7556 42.83 82.1014 43.3996 82.3374C43.9692 82.5733 44.5797 82.6947 45.1962 82.6947C45.8127 82.6947 46.4232 82.5733 46.9928 82.3374C47.5624 82.1014 48.08 81.7556 48.5159 81.3197C48.9519 80.8837 49.2977 80.3662 49.5336 79.7966C49.7695 79.227 49.891 78.6165 49.891 78L45.1962 78H40.5015Z" fill="black"/>
<path d="M105.081 78C105.081 78.6165 105.202 79.227 105.438 79.7966C105.674 80.3662 106.02 80.8837 106.456 81.3197C106.892 81.7556 107.409 82.1014 107.979 82.3374C108.548 82.5733 109.159 82.6947 109.775 82.6947C110.392 82.6947 111.002 82.5733 111.572 82.3374C112.142 82.1014 112.659 81.7556 113.095 81.3197C113.531 80.8837 113.877 80.3662 114.113 79.7966C114.349 79.227 114.47 78.6165 114.47 78L109.775 78H105.081Z" fill="black"/>
<path d="M118.04 78C118.04 78.6165 118.161 79.227 118.397 79.7966C118.633 80.3662 118.979 80.8837 119.415 81.3197C119.851 81.7556 120.369 82.1014 120.938 82.3374C121.508 82.5733 122.118 82.6947 122.735 82.6947C123.351 82.6947 123.962 82.5733 124.531 82.3374C125.101 82.1014 125.618 81.7556 126.054 81.3197C126.49 80.8837 126.836 80.3662 127.072 79.7966C127.308 79.227 127.429 78.6165 127.429 78L122.735 78H118.04Z" fill="black"/>
<path d="M130.999 78C130.999 78.6165 131.121 79.227 131.357 79.7966C131.593 80.3662 131.938 80.8837 132.374 81.3197C132.81 81.7556 133.328 82.1014 133.898 82.3374C134.467 82.5733 135.078 82.6947 135.694 82.6947C136.311 82.6947 136.921 82.5733 137.491 82.3374C138.06 82.1014 138.578 81.7556 139.014 81.3197C139.45 80.8837 139.796 80.3662 140.031 79.7966C140.267 79.227 140.389 78.6165 140.389 78L135.694 78H130.999Z" fill="black"/>
</svg>
