<svg width="167" height="85" viewBox="0 0 167 85" fill="none" xmlns="http://www.w3.org/2000/svg">
<path d="M3.49921 13.178C3.49921 7.65516 7.97636 3.17801 13.4992 3.17801H153.499C159.022 3.17801 163.499 7.65516 163.499 13.178V70.178C163.499 75.7009 159.022 80.178 153.499 80.178H13.4992C7.97636 80.178 3.49921 75.7009 3.49921 70.178V13.178Z" fill="#8D8D8D"/>
<path d="M127.074 37.3008L3.6897 37.142V41.4701H127.074H127.698H162.953V37.3008H127.074Z" fill="#606060"/>
<path d="M127.698 41.4701H127.074M127.074 41.4701H3.6897V37.142L127.074 37.3008H162.953V41.4701H127.074Z" stroke="#606060"/>
<path d="M2 36.3334V42.1053" stroke="white" stroke-width="3"/>
<rect x="24.4714" y="21.5316" width="22.6628" height="10.8112" rx="2" fill="#373737"/>
<rect x="28.0975" y="21.5316" width="15.4107" height="10.8112" fill="#D9D9D9"/>
<rect x="72.0846" y="21.5316" width="22.6628" height="10.8112" rx="2" fill="#373737"/>
<rect x="75.7107" y="21.5316" width="15.4107" height="10.8112" fill="#D9D9D9"/>
<rect x="119.697" y="21.5316" width="22.6628" height="10.8112" rx="2" fill="#373737"/>
<rect x="123.323" y="21.5316" width="15.4107" height="10.8112" fill="#D9D9D9"/>
<path d="M3.46768 10.1575C4.60994 8.01343 8.06453 3.71498 10.6375 3.68435C13.324 3.49292 17.5829 3.18662 13.1262 3.49292C15.0359 3.34034 18.4642 3.14068 20.0729 3.2752L36.5585 3.37806H100.032C106.46 3.9239 120.587 6.04323 125.67 10.1539C83.9248 10.1284 3.46768 10.0972 3.46768 10.1575Z" fill="#606060"/>
<path d="M128.037 10.0622C127.426 10.0618 126.299 10.1542 125.67 10.1539M20.0729 3.2752C18.4642 3.14068 15.0359 3.34034 13.1262 3.49292C17.5829 3.18662 13.324 3.49292 10.6375 3.68435C8.06453 3.71498 4.60994 8.01343 3.46768 10.1575C3.46768 10.0972 83.9248 10.1284 125.67 10.1539M20.0729 3.2752C20.5499 3.31508 20.8669 3.38434 20.937 3.49292C21.2433 3.96769 20.4885 3.54559 20.0729 3.2752ZM20.0729 3.2752L36.5585 3.37806H100.032C106.46 3.9239 120.587 6.04323 125.67 10.1539" stroke="#606060"/>
<path d="M163.953 10.1575C162.81 8.01343 159.356 3.71498 156.783 3.68435C154.096 3.49292 149.837 3.18662 154.294 3.49292C152.384 3.34034 148.956 3.14068 147.348 3.2752L130.862 3.37806H67.3881C60.9601 3.9239 46.8333 6.04323 41.7504 10.1539C83.4956 10.1284 163.953 10.0972 163.953 10.1575Z" fill="#606060"/>
<path d="M39.383 10.0622C39.9944 10.0618 41.1213 10.1542 41.7504 10.1539M147.348 3.2752C148.956 3.14068 152.384 3.34034 154.294 3.49292C149.837 3.18662 154.096 3.49292 156.783 3.68435C159.356 3.71498 162.81 8.01343 163.953 10.1575C163.953 10.0972 83.4956 10.1284 41.7504 10.1539M147.348 3.2752C146.871 3.31508 146.554 3.38434 146.483 3.49292C146.177 3.96769 146.932 3.54559 147.348 3.2752ZM147.348 3.2752L130.862 3.37806H67.3881C60.9601 3.9239 46.8333 6.04323 41.7504 10.1539" stroke="#606060"/>
<path d="M123.796 8.94522C124.156 9.09295 126.425 9.94613 126.65 10.4044" stroke="#606060"/>
<path d="M3.18774 11.3218C3.31022 10.1962 4.82535 5.29284 7.87661 3.15137" stroke="white"/>
<path d="M17.082 80.178C17.082 80.7945 17.2034 81.405 17.4393 81.9746C17.6753 82.5442 18.0211 83.0617 18.457 83.4977C18.893 83.9336 19.4105 84.2794 19.9801 84.5154C20.5497 84.7513 21.1602 84.8727 21.7767 84.8727C22.3932 84.8727 23.0037 84.7513 23.5733 84.5154C24.1429 84.2794 24.6604 83.9336 25.0964 83.4977C25.5323 83.0617 25.8781 82.5442 26.1141 81.9746C26.35 81.405 26.4714 80.7945 26.4714 80.178L21.7767 80.178H17.082Z" fill="black"/>
<path d="M30.0413 80.178C30.0413 80.7945 30.1628 81.405 30.3987 81.9746C30.6346 82.5442 30.9804 83.0617 31.4164 83.4977C31.8523 83.9336 32.3699 84.2794 32.9395 84.5154C33.509 84.7513 34.1195 84.8727 34.7361 84.8727C35.3526 84.8727 35.9631 84.7513 36.5327 84.5154C37.1022 84.2794 37.6198 83.9336 38.0557 83.4977C38.4917 83.0617 38.8375 82.5442 39.0734 81.9746C39.3094 81.405 39.4308 80.7945 39.4308 80.178L34.7361 80.178H30.0413Z" fill="black"/>
<path d="M43.0007 80.178C43.0007 80.7945 43.1221 81.405 43.358 81.9746C43.594 82.5442 43.9398 83.0617 44.3757 83.4977C44.8117 83.9336 45.3292 84.2794 45.8988 84.5154C46.4684 84.7513 47.0789 84.8727 47.6954 84.8727C48.3119 84.8727 48.9224 84.7513 49.492 84.5154C50.0616 84.2794 50.5791 83.9336 51.0151 83.4977C51.451 83.0617 51.7968 82.5442 52.0328 81.9746C52.2687 81.405 52.3901 80.7945 52.3901 80.178L47.6954 80.178H43.0007Z" fill="black"/>
<path d="M114.58 80.178C114.58 80.7945 114.701 81.405 114.937 81.9746C115.173 82.5442 115.519 83.0617 115.955 83.4977C116.391 83.9336 116.908 84.2794 117.478 84.5154C118.048 84.7513 118.658 84.8727 119.275 84.8727C119.891 84.8727 120.502 84.7513 121.071 84.5154C121.641 84.2794 122.158 83.9336 122.594 83.4977C123.03 83.0617 123.376 82.5442 123.612 81.9746C123.848 81.405 123.969 80.7945 123.969 80.178L119.275 80.178H114.58Z" fill="black"/>
<path d="M127.539 80.178C127.539 80.7945 127.661 81.405 127.897 81.9746C128.133 82.5442 128.478 83.0617 128.914 83.4977C129.35 83.9336 129.868 84.2794 130.437 84.5154C131.007 84.7513 131.617 84.8727 132.234 84.8727C132.85 84.8727 133.461 84.7513 134.031 84.5154C134.6 84.2794 135.118 83.9336 135.554 83.4977C135.99 83.0617 136.335 82.5442 136.571 81.9746C136.807 81.405 136.929 80.7945 136.929 80.178L132.234 80.178H127.539Z" fill="black"/>
<path d="M140.499 80.178C140.499 80.7945 140.62 81.405 140.856 81.9746C141.092 82.5442 141.438 83.0617 141.874 83.4977C142.31 83.9336 142.827 84.2794 143.397 84.5154C143.966 84.7513 144.577 84.8727 145.193 84.8727C145.81 84.8727 146.42 84.7513 146.99 84.5154C147.559 84.2794 148.077 83.9336 148.513 83.4977C148.949 83.0617 149.295 82.5442 149.531 81.9746C149.767 81.405 149.888 80.7945 149.888 80.178L145.193 80.178H140.499Z" fill="black"/>
<path d="M154.933 1C159.831 3.41107 164.309 8.34801 164.003 13.2849" stroke="white"/>
<path d="M163.391 5.74561L165.878 13.0553" stroke="white" stroke-width="2"/>
<path d="M4.02136 42.5H163.021V70C163.021 75.2467 158.768 79.5 153.521 79.5H13.5214C8.27466 79.5 4.02136 75.2467 4.02136 70V42.5Z" fill="#EF5454" stroke="black"/>
<path d="M84.0613 66.1491C83.3582 66.1491 82.7314 66.0284 82.181 65.7869C81.6341 65.5455 81.1991 65.2099 80.8759 64.7802C80.5563 64.3469 80.3823 63.8445 80.3539 63.2727H81.6963C81.7247 63.6243 81.8454 63.9279 82.0585 64.1836C82.2715 64.4357 82.5503 64.631 82.8948 64.7695C83.2392 64.908 83.621 64.9773 84.04 64.9773C84.5088 64.9773 84.9242 64.8956 85.2865 64.7322C85.6487 64.5689 85.9328 64.3416 86.1387 64.0504C86.3447 63.7592 86.4477 63.4219 86.4477 63.0384C86.4477 62.6371 86.3482 62.2837 86.1494 61.9783C85.9505 61.6694 85.6593 61.4279 85.2758 61.2539C84.8923 61.0799 84.4235 60.9929 83.8696 60.9929H82.996V59.821H83.8696C84.3028 59.821 84.6828 59.7429 85.0095 59.5866C85.3397 59.4304 85.5972 59.2102 85.7818 58.9261C85.97 58.642 86.0642 58.3082 86.0642 57.9247C86.0642 57.5554 85.9825 57.234 85.8191 56.9606C85.6558 56.6871 85.4249 56.4741 85.1267 56.3214C84.8319 56.1687 84.4839 56.0923 84.0826 56.0923C83.7062 56.0923 83.3511 56.1616 83.0173 56.3001C82.687 56.435 82.4171 56.6321 82.2076 56.8913C81.9981 57.147 81.8845 57.456 81.8667 57.8182H80.5883C80.6096 57.2464 80.7818 56.7457 81.105 56.3161C81.4281 55.8828 81.8507 55.5455 82.3727 55.304C82.8983 55.0625 83.4754 54.9418 84.1039 54.9418C84.7786 54.9418 85.3575 55.0785 85.8404 55.3519C86.3234 55.6218 86.6945 55.9787 86.9537 56.4226C87.2129 56.8665 87.3426 57.3459 87.3426 57.8608C87.3426 58.4751 87.181 58.9989 86.8578 59.4322C86.5382 59.8654 86.1032 60.1655 85.5528 60.3324V60.4176C86.2417 60.5312 86.7797 60.8242 87.1668 61.2965C87.5539 61.7653 87.7474 62.3459 87.7474 63.0384C87.7474 63.6314 87.5858 64.1641 87.2627 64.6364C86.9431 65.1051 86.5063 65.4744 85.9523 65.7443C85.3983 66.0142 84.768 66.1491 84.0613 66.1491Z" fill="black"/>
</svg>
